<svg width="24" height="25" viewBox="0 0 24 25" fill="none" xmlns="http://www.w3.org/2000/svg">
<path d="M12 24.709C18.6274 24.709 24 19.3364 24 12.709C24 6.08157 18.6274 0.708984 12 0.708984C5.37258 0.708984 0 6.08157 0 12.709C0 19.3364 5.37258 24.709 12 24.709Z" fill="#EA7A15"/>
<path d="M12 23.709C18.0751 23.709 23 18.7841 23 12.709C23 6.63385 18.0751 1.70898 12 1.70898C5.92487 1.70898 1 6.63385 1 12.709C1 18.7841 5.92487 23.709 12 23.709Z" stroke="black" stroke-opacity="0.1" stroke-width="2"/>
<path d="M10.586 17.3657L5.63599 12.4167L7.05099 11.0017L10.586 14.5377L17.657 7.4668L19.071 8.88074L10.586 17.3657Z" fill="white"/>
</svg>
